<svg width="20" height="23" viewBox="0 0 20 23" fill="none" xmlns="http://www.w3.org/2000/svg">
<path d="M0 4.3125C0 3.51738 0.638393 2.875 1.42857 2.875H18.5714C19.3616 2.875 20 3.51738 20 4.3125C20 5.10762 19.3616 5.75 18.5714 5.75H1.42857C0.638393 5.75 0 5.10762 0 4.3125ZM0 11.5C0 10.7049 0.638393 10.0625 1.42857 10.0625H18.5714C19.3616 10.0625 20 10.7049 20 11.5C20 12.2951 19.3616 12.9375 18.5714 12.9375H1.42857C0.638393 12.9375 0 12.2951 0 11.5ZM20 18.6875C20 19.4826 19.3616 20.125 18.5714 20.125H1.42857C0.638393 20.125 0 19.4826 0 18.6875C0 17.8924 0.638393 17.25 1.42857 17.25H18.5714C19.3616 17.25 20 17.8924 20 18.6875Z" fill="#724c4c"/>
</svg>
